<?xml version="1.0" encoding="UTF-8"?>
<svg width="180" height="180" viewBox="0 0 180 180" fill="none" xmlns="http://www.w3.org/2000/svg">
  <path fill-rule="evenodd" clip-rule="evenodd" d="M90 180C139.706 180 180 139.706 180 90C180 40.2944 139.706 0 90 0C40.2944 0 0 40.2944 0 90C0 139.706 40.2944 180 90 180ZM138.593 42.3093C139.841 43.5087 140.112 45.4536 138.958 46.9907C138.958 46.9907 138.916 47.0576 138.832 47.1914C138.749 47.3252 138.624 47.5259 138.457 47.7935C138.125 48.3287 137.668 49.0799 137.086 50.047C135.923 51.9813 134.302 54.6915 132.223 58.1777C128.064 65.1501 122.145 74.9962 114.466 87.7161L114.466 87.7161L114.465 87.7171C106.786 100.437 100.867 110.283 96.7079 117.256C94.6293 120.742 93.0079 123.452 91.8453 125.386C91.2639 126.354 90.8074 127.105 90.4752 127.64C90.3091 127.908 90.1841 128.109 90.1008 128.243C90.0591 128.31 90.0267 128.362 90.0037 128.399L90 128.405L89.9963 128.399C89.9733 128.362 89.9409 128.31 89.8992 128.243C89.8159 128.109 89.6909 127.908 89.5248 127.64C89.1926 127.105 88.7361 126.354 88.1547 125.386C86.9921 123.452 85.3707 120.742 83.2921 117.256C79.1326 110.283 73.2139 100.437 65.5347 87.7171L65.5345 87.7161C57.8553 74.9962 51.9365 65.1501 47.7771 58.1777C45.6984 54.6915 44.0771 51.9813 42.9144 50.047C42.3331 49.0799 41.8766 48.3287 41.5444 47.7935C41.3783 47.5259 41.2533 47.3252 41.1699 47.1914C41.0866 47.0576 41.0439 46.9907 41.0439 46.9907C39.8899 45.4536 40.1613 43.5087 41.4089 42.3093C42.6566 41.1098 44.6015 41.0615 46.0421 42.1126L46.0904 42.1126C46.0904 42.1126 46.1573 42.1609 46.2889 42.2576C46.4206 42.3543 46.6184 42.4993 46.8824 42.7149C47.4105 43.1462 48.1551 43.8424 49.1157 44.8513C50.0763 45.8603 51.3207 47.2341 52.8096 48.9651C55.7874 52.4271 59.6165 57.4099 64.2969 63.9441C73.6577 77.0125 86.1672 95.8855 101.825 120.563L89.9963 128.399L90 128.405L90.0037 128.399L78.1748 120.563C93.8328 95.8855 106.342 77.0125 115.703 63.9441C120.383 57.4099 124.213 52.4271 127.19 48.9651C128.679 47.2341 129.924 45.8603 130.884 44.8513C131.845 43.8424 132.589 43.1462 133.118 42.7149C133.382 42.4993 133.579 42.3543 133.711 42.2576C133.843 42.1609 133.91 42.1126 133.91 42.1126L133.958 42.1126C135.398 41.0615 137.343 41.1098 138.593 42.3093Z" fill="#FF5D01"/>
</svg>
